<?xml version="1.0" encoding="UTF-8"?>
<svg viewBox="0 0 123.38 83.77" xmlns="http://www.w3.org/2000/svg">
<g transform="translate(416.12 65.812)" fill="#91b40d" data-name="Group 436">
<path transform="translate(0 -48.07)" d="M-416.116,52.558c.887-1.844,2.347-2.479,4.379-2.434,4.576.1,9.155.032,13.733.032h1.291c.547-2.637,1.506-3.407,4.625-3.74a2.437,2.437,0,0,0,.116-.533c.009-3.775.023-7.55-.016-11.324a1.39,1.39,0,0,0-.571-1.006,2.486,2.486,0,0,1-1.264-2.3c-.008-1.526-.006-3.052-.005-4.578,0-2.722.441-3.217,3.268-3.538V15.858c0-3.333.331-3.735,3.635-4.348V8.791c-.4-.025-.788-.045-1.172-.073A1.732,1.732,0,0,1-389.79,7a1.762,1.762,0,0,1,1.657-1.877q3.129-.093,6.263,0a1.722,1.722,0,0,1,1.637,1.879,1.7,1.7,0,0,1-1.679,1.71c-.353.033-.709.04-1.141.063v2.812c.291.025.561.047.831.072a2.658,2.658,0,0,1,2.74,2.973c.012,2.807,0,5.613,0,8.489.454.054.841.085,1.221.149a2.246,2.246,0,0,1,2.084,2.264,52.068,52.068,0,0,1-.041,5.9c-.061.716-.759,1.386-1.2,2.058-.176.271-.615.491-.617.737-.039,4.045-.028,8.091-.028,12.232,2.594-.1,4.278.9,4.737,3.691h1.238q5,0,10,0c1.4,0,2.244.662,2.292,1.76.05,1.128-.83,1.868-2.292,1.873-3.692.012-7.384,0-11.183,0v5.382h37.7V53.795h-1.346q-8.252,0-16.5,0a10.775,10.775,0,0,1-1.2-.033,1.659,1.659,0,0,1-1.6-1.783,1.706,1.706,0,0,1,1.6-1.8,10.275,10.275,0,0,1,1.444-.02h17.619c.43-2.7,2.071-3.819,4.759-3.679V41.113c0-2.168.03-4.338-.029-6.5a1.54,1.54,0,0,0-.631-1.076,2.552,2.552,0,0,1-1.245-2.317c-.006-1.486,0-2.972,0-4.457,0-2.785.451-3.3,3.327-3.626V18.27c0-1.165-.005-2.329,0-3.494.011-2.075.853-2.958,2.962-3.119.193-.015.386-.042.618-.068.027-.23.067-.423.07-.618.008-.681,0-1.361,0-2.178-.436-.026-.818-.043-1.2-.074a1.7,1.7,0,0,1-1.7-1.689,1.716,1.716,0,0,1,1.612-1.9c2.086-.07,4.176-.065,6.263-.007a1.813,1.813,0,0,1,1.7,1.857,1.834,1.834,0,0,1-1.8,1.742c-.315.027-.631.033-1.042.052v2.8c.365.034.715.055,1.062.1a2.673,2.673,0,0,1,2.534,2.832c.024,2.847.006,5.694.006,8.614.485.064.911.1,1.329.179a2.044,2.044,0,0,1,1.88,2.026c.063,2.125.109,4.259-.039,6.376-.044.627-.758,1.21-1.173,1.807-.186.268-.562.521-.565.784-.039,3.574-.027,7.148-.028,10.722V46.45c2.6-.073,4.324.947,4.72,3.706h4.8c3.694,0,7.389-.011,11.083,0a3.314,3.314,0,0,1,3.546,3.529c.013,1.847.008,3.694,0,5.542a3.348,3.348,0,0,1-3.643,3.678q-7.228.015-14.457,0h-1.384c-.758,2.554-2.64,3.157-5.05,3.114-4.5-.08-9-.067-13.492,0-2.311.032-3.983-.742-4.706-3.078h-37.9c-.727,2.359-2.442,3.116-4.792,3.08-4.536-.07-9.075-.02-13.613-.021-2.844,0-3.631-.485-4.927-3.09-2.161,0-4.364.006-6.566,0-1.4-.005-2.215-.676-2.231-1.8s.794-1.82,2.19-1.831c2.166-.018,4.332,0,6.6,0V53.893h-15.72v5.325c.582.028,1.134.03,1.681.085a1.642,1.642,0,0,1,1.621,1.62,1.692,1.692,0,0,1-1.411,1.946,4.564,4.564,0,0,1-5.577-2.359Zm39.019-2.331h-15.81V62.168h15.81Zm61.185,0H-331.72v11.95h15.808Zm3.752,3.633v5.35h15.739v-5.35Zm-69.664-7.42v-12.6h-6.325v12.6Zm54.764-.029h6.345V33.82h-6.345Zm-52.914-16.361V27.03h-10.063v3.016Zm51.044.008h10.118v-2.99h-10.118Zm-54.244-6.906V15.479h-3.664v7.669Zm57.486-7.7v7.7h3.63v-7.7Z" data-name="Path 4379"/>
<path transform="translate(-61.629)" d="m-321.51-63.3c0 1.525-0.569 2.362-1.682 2.473-1.2 0.12-1.988-0.746-2.037-2.233-0.059-1.755 0.671-2.8 1.916-2.745 1.139 0.045 1.803 0.968 1.803 2.505z" data-name="Path 4380"/>
<path transform="translate(-190.86 -.095)" d="m-131.14-63.177c-5e-3 1.462-0.546 2.4-1.594 2.391-0.591-6e-3 -1.585-0.367-1.686-0.753a7.255 7.255 0 0 1-0.092-3.194c0.085-0.418 1.024-0.881 1.608-0.932 1.123-0.098 1.77 0.932 1.764 2.488z" data-name="Path 4381"/>
<path transform="translate(-61.628 -16.084)" d="m-321.51-39.539c-7e-3 1.882-1.256 2.95-2.647 2.257-1.039-0.517-1.082-1.476-1.075-2.46a2.089 2.089 0 0 1 1.152-2.173c1.397-0.627 2.577 0.464 2.57 2.376z" data-name="Path 4382"/>
<path transform="translate(-190.3 -16.104)" d="M-131.409-39.406a8.073,8.073,0,0,1-1.308,2.064,1.536,1.536,0,0,1-2.223-.4,3.441,3.441,0,0,1-.029-3.609,1.694,1.694,0,0,1,2.14-.529,2.14,2.14,0,0,1,1.133,2.3Z" data-name="Path 4383"/>
<path transform="translate(-29.205 -21.701)" d="m-371.15-33.807a3.539 3.539 0 0 1 2.7 2.8 1.874 1.874 0 0 1-1.906 1.757 3.5 3.5 0 0 1-2.688-2.816 1.811 1.811 0 0 1 1.894-1.741z" data-name="Path 4384"/>
<path transform="translate(-220.98 -21.704)" d="m-88.4-29.243a1.876 1.876 0 0 1-1.824-1.841 3.556 3.556 0 0 1 2.789-2.72 1.811 1.811 0 0 1 1.81 1.828 3.515 3.515 0 0 1-2.775 2.733z" data-name="Path 4385"/>
<path transform="translate(-103.58 -10.293)" d="m-258.8-48.784a3.512 3.512 0 0 1-2.748 2.752 1.915 1.915 0 0 1-1.812-1.867 3.561 3.561 0 0 1 2.783-2.734 1.782 1.782 0 0 1 1.777 1.849z" data-name="Path 4386"/>
<path transform="translate(-146.68 -10.295)" d="m-195.23-47.914a1.921 1.921 0 0 1-1.794 1.886 3.527 3.527 0 0 1-2.765-2.735 1.779 1.779 0 0 1 1.758-1.866 3.549 3.549 0 0 1 2.801 2.715z" data-name="Path 4387"/>
<path transform="translate(-157.94 -21.703)" d="m-181.35-33.805a3.363 3.363 0 0 1 2.731 2.739 1.8 1.8 0 0 1-1.806 1.822 3.62 3.62 0 0 1-2.776-2.756 1.856 1.856 0 0 1 1.851-1.805z" data-name="Path 4388"/>
<path transform="translate(-40.615 -32.99)" d="m-353.52-12.576a3.36 3.36 0 0 1-2.694-2.781 1.851 1.851 0 0 1 1.852-1.8 3.622 3.622 0 0 1 2.709 2.816 1.81 1.81 0 0 1-1.867 1.765z" data-name="Path 4389"/>
<path transform="translate(-209.65 -32.983)" d="m-104.17-17.17a1.853 1.853 0 0 1 1.8 1.859 3.431 3.431 0 0 1-2.626 2.723 1.815 1.815 0 0 1-1.932-1.7 3.563 3.563 0 0 1 2.758-2.882z" data-name="Path 4390"/>
<path transform="translate(-92.289 -21.703)" d="m-275.43-31.971a3.611 3.611 0 0 1-2.8 2.726 1.8 1.8 0 0 1-1.779-1.849 3.363 3.363 0 0 1 2.757-2.712 1.851 1.851 0 0 1 1.822 1.835z" data-name="Path 4391"/>
<path transform="translate(-61.658 -32.307)" d="M-321.219-15.57a7.386,7.386,0,0,1-1.209,2.023,1.675,1.675,0,0,1-2.606-.932,5.763,5.763,0,0,1-.126-1.9,1.733,1.733,0,0,1,1.854-1.784,1.822,1.822,0,0,1,1.821,1.848c.019.2,0,.4,0,.6Z" data-name="Path 4392"/>
<path transform="translate(-190.38 -32.303)" d="m-131.62-15.667c-0.014 1.587-0.667 2.419-1.887 2.4-1.31-0.018-1.954-1.051-1.832-2.938a1.84 1.84 0 0 1 2.066-1.96c1.135 0.107 1.667 0.912 1.653 2.498z" data-name="Path 4393"/>
<path transform="translate(-17.804 -10.288)" d="m-385.3-47.919a1.816 1.816 0 0 1-1.76 1.882 3.641 3.641 0 0 1-2.8-2.733 1.873 1.873 0 0 1 1.8-1.869 3.424 3.424 0 0 1 2.76 2.72z" data-name="Path 4394"/>
<path transform="translate(-232.46 -10.295)" d="m-68.728-48.806a3.646 3.646 0 0 1-2.758 2.78 1.822 1.822 0 0 1-1.8-1.845 3.433 3.433 0 0 1 2.722-2.759 1.867 1.867 0 0 1 1.836 1.824z" data-name="Path 4395"/>
<path transform="translate(-80.8 -32.989)" d="m-294.19-17.161a1.837 1.837 0 0 1 1.806 1.865 3.387 3.387 0 0 1-2.66 2.716 1.867 1.867 0 0 1-1.913-1.763 3.7 3.7 0 0 1 2.767-2.818z" data-name="Path 4396"/>
<path transform="translate(-169.44 -32.991)" d="m-161.66-14.358a1.863 1.863 0 0 1-1.9 1.78 3.367 3.367 0 0 1-2.677-2.7 1.843 1.843 0 0 1 1.791-1.881 3.687 3.687 0 0 1 2.786 2.801z" data-name="Path 4397"/>
</g>
</svg>
